<?xml version="1.0" encoding="UTF-8"?>
<svg id="Layer_1" data-name="Layer 1" xmlns="http://www.w3.org/2000/svg" viewBox="0 0 600 600">
  <defs>
    <style>
      .cls-1 {
        fill: #fff;
      }
    </style>
  </defs>
  <path class="cls-1" d="M354.7,279.04v151.5c-6.6,92.5-84.57,149.2-175.27,136.18-63.41-9.1-117.17-64.78-121.76-129.24-4.18-58.57,3.09-121.91,0-180.98,1.83-14.56,12.47-27.1,26.44-31.56s26.63.2,40.06,1.04c52.85,3.3,109.14,3.25,161.98,0,21.99-1.35,38.37-8.96,57.06,7.96,2.24,2.02,3.21,5.21,5.94,6.77,17.11-9.69,38.7-11.09,58.05-9.76,18.33,1.26,54.85,12.9,43.63,37.71-4.29,9.5-16.14,11.87-25.07,7.72-2.82-1.31-4.49-3.98-6.75-5.25-10.06-5.67-37.52-5.2-47.91-.2-5.05,2.43-8.97,9.02-16.41,8.09ZM317.66,436.5v-175c-5.84-3.32-15.58,0-22.51.49-36.02,2.55-72.01,2.38-107.95,1.97-12.69-.15-25.39.16-38.08.08l-54.31-3.9-1.19,5.31c2.27,53.03-2.86,108.34,0,161.09,4.12,75.99,75.5,121.84,147.57,100.47,39.22-11.63,72.52-49.27,76.48-90.52Z"/>
  <path class="cls-1" d="M283.66,188.5c-3.06,19.67-34.25,20.9-36.89-1.11,1.78-30.56-2.82-64.61.02-94.76,1.13-12.02,7.74-23.61,18.18-29.82,17.37-10.35,33.56-3.89,52.2-2.82,55.17,3.18,111.83,2.72,166.98-1,8.72-.59,17.04-2.89,26-1.99,16.82,1.69,30.89,16.14,33.4,32.6-2.34,58.8,3.47,120.47.16,178.94-4.02,70.85-64.26,129.03-134.56,133.44-12.58.79-33.41,2.31-35.51-14.46-3.3-26.38,21.04-21.25,37.5-22.54,51.59-4.04,94.85-52.25,96.56-103.44l-.24-165.83-2.41-2.48c-18.17,2.84-36.51,3.09-54.87,3.78-47.03,1.77-94.98,2.08-142-1.02-7.58-.5-18-3.84-24.51-.49v93Z"/>
  <path class="cls-1" d="M448.38,171.71c2.43-2.03,2.17-5.52,7.38-8.11,16.5-8.2,32.59,6.67,25.94,23.94-11.53,29.97-70.32,29.76-79.76-1.32-5.65-18.59,14.87-31.75,29.22-20.22,2.17,1.75,4.4,6.26,6.19,6.81,2.35.72,9.11.5,11.04-1.1Z"/>
  <path class="cls-1" d="M371.3,166.36c8.37,8.15,5.86,19.72-.66,28.12-15.74,20.26-53.55,20.73-70,1.05-12.42-14.86-5.17-36.14,15.44-33.43,8.87,1.17,11.9,10.3,15.07,10.91,11.73,2.28,10.41-4.65,17.17-8.84,7.21-4.47,16.9-3.72,22.98,2.2Z"/>
  <path class="cls-1" d="M229.35,436.67c2.53-1.66,4.41-5.49,9.03-6.45,20.31-4.21,31.14,17.29,17.79,31.79-19.41,21.09-85.58,21.76-105.06,1.02-14.93-15.9.19-39.05,19.52-31.53,3.87,1.51,6.27,5.24,9.29,6.71,9.88,4.77,40.1,4.57,49.41-1.55Z"/>
  <path class="cls-1" d="M244.94,388.29c-2.92,2.44-3.17,6.88-9.54,8.95-20.43,6.64-31.65-14.32-20.57-30.57,14.9-21.85,56.35-22.23,72.25-1.58,16.56,21.52-8.38,43.49-25.91,27.91-1.76-1.56-2.74-5.05-5.21-5.78s-9.07-.55-11.02,1.08Z"/>
  <path class="cls-1" d="M145.45,350.29c14.84-1.59,32.22,2.37,41.73,14.68,15.12,19.58-4.62,41.47-22.49,30.49-6.87-4.23-3.81-10.12-15.59-8.51-4.71.65-5.08,4.69-8.52,7.47-10.78,8.71-28.55,2.6-29.93-11.92-1.74-18.36,18.74-30.49,34.8-32.21Z"/>
</svg>