<?xml version="1.0" encoding="UTF-8"?>
<svg id="Layer_1" data-name="Layer 1" xmlns="http://www.w3.org/2000/svg" viewBox="0 0 600 600">
  <defs>
    <style>
      .cls-1 {
        fill: #fff;
      }
    </style>
  </defs>
  <path class="cls-1" d="M278.8,83.3c82.65-5.55,170.04,26.47,214.01,99.4,36.48,60.5,21.26,125.37,24.06,192.68-20.54,131.71-166.1,191.84-286.09,157.34-78.49-22.57-143.8-87.63-147.83-172.17-1.72-36.17-3.52-100.06,5.33-133.76,21.8-83.07,107.65-137.93,190.51-143.49ZM293.79,117.29c-110.52-.35-221.98,107.13-158.31,218.72s262.77,114.93,328.69.65c64.86-112.44-48.44-220.44-159.68-219.66l-10.7.28ZM120.01,376c18.66,97.58,124.5,143.56,216.2,128.71,67.98-11.01,133.87-59.3,145.8-130.2-.37-1.27-2.19,1.1-2.52,1.48-2.96,3.39-5.94,7.79-8.97,11.03-91.56,97.64-265.86,93.41-350.5-11.01Z"/>
  <path class="cls-1" d="M246,233h29.5c7.06,0,13.92,11.56,13.54,18.46-.39,7.24-8.11,16.54-15.54,16.54h-45.5v4h28.5c.49,0,4.66,2.78,5.52,3.48,7.38,5.99,8.45,17.26,2.5,24.54-6.28,7.68-12.76,5.51-21.52,6.47,25.59,29.08,76.67,31.37,106.47,7.48,8.25-6.62,11.86-16.33,24.75-14.72s18.62,15.27,12.8,26.27c-3.26,6.16-15.76,16.24-21.71,20.29-53.41,36.28-136.55,21-164.47-39.65-1.61-1.01-18.14.33-22.25-.25-13.2-1.87-17.27-20.11-8.59-29.13.86-.89,7-4.78,7.5-4.78h15.5v-4c-15.77,2.91-33.65-6.94-26.2-24.7,6.33-15.09,23.16-9.03,36.04-10.47,32.3-66.08,138.32-73.73,183.18-17.36,15.49,19.46-7.13,40.44-24.03,26.03-3.2-2.73-5.23-6.45-8.52-9.48-28.72-26.4-79.43-26.37-107.47.97Z"/>
</svg>