<?xml version="1.0" encoding="UTF-8"?>
<svg id="Layer_1" data-name="Layer 1" xmlns="http://www.w3.org/2000/svg" viewBox="0 0 600 600">
  <defs>
    <style>
      .cls-1 {
        fill: #fff;
      }
    </style>
  </defs>
  <path class="cls-1" d="M310.72,56.8c5.68,1.52,12.18,1.33,18.11,2.11,106.74,14.13,194.84,98.13,214.35,203.91l4.26,30.77c-.43,10.11.59,20.5,0,30.59-12.6,215.65-276.91,317.78-430.9,164.18C-37.57,334.66,64.37,68.8,280.14,56.8h30.57ZM505.02,309.38c2.23-122.07-109.39-223.45-230.79-209.17v88.31c0,1.66,4.13,7.81,5.53,9.27,8.11,8.41,21,5.71,31.95,8.49,25.73,6.53,44.46,31.09,46.39,57.19,1.54,20.87,2.27,58.06-7.76,76.18-28.23,51.03-94.28,27.54-141.7,32.88-12.06,1.36-18.37,10.76-19.27,22.17-2.36,30.16,1.88,63.33-.01,93.82-.1,1.56.47,2.38,1.47,3.46,2.47,2.66,23.24,11.69,27.92,13.51,55.97,21.87,120.3,18.47,173.51-9.45,2.39-1.25,33.76-20.06,31.88-21.87-20.82-4.73-38.14-23.64-43.1-44.21-4.23-17.53-4.15-64.19,2.49-80.79,7.19-18,30.7-39.78,50.97-39.78h70.52ZM231.82,109.09c-128.23,38.92-186.88,190.77-118.16,307.15,6.29,10.66,21.96,33.45,31.36,40.65.99.76,1.24,1.9,2.97,1.47v-74.49c0-3.04,3.66-12.36,5.07-15.65,24.54-57,97.78-32.95,146.24-38.21,8.7-1.86,15.61-9.12,16.4-18.13,1.04-11.78,1.05-34.68,0-46.45-2.07-23.11-24.58-17.31-40.02-22.13-20.34-6.35-43.86-30.58-43.86-52.82v-81.4ZM501.07,351.81h-64.6c-.36,0-5.54,2.94-6.35,3.51-3.88,2.74-7.91,8.24-8.7,13-1.35,8.05-1.29,42.69.21,50.62,3.76,19.87,24.11,15.24,38.54,19.32,20.97-24.38,34-55.11,40.9-86.45Z"/>
</svg>