<?xml version="1.0" encoding="UTF-8"?>
<svg id="Layer_1" data-name="Layer 1" xmlns="http://www.w3.org/2000/svg" viewBox="0 0 600 600">
  <defs>
    <style>
      .cls-1 {
        fill: #fff;
      }
    </style>
  </defs>
  <path class="cls-1" d="M74.99,279c-13.64,9.48-24.35,25.54-36.98,35.51-19.35,15.28-43.18-8.15-27.03-28.03,19.62-24.16,49.21-45.35,70-69,7.53-6.16,17.48-5.8,25.04,0l71.39,70.61c13.27,19.59-9.58,41.29-28.43,26.43-11.76-9.27-22.46-24.39-34.98-33.51-11.58,110.21,71.12,208.53,179.63,222.86,152.22,20.09,277.29-124.95,225.1-272.1-49.9-140.72-235.12-182.98-343.76-81.27-11.86,11.11-20.43,25.87-30.94,36.06-13.94,13.51-36.11,1.62-32.98-17.98,2.17-13.61,41.18-50.61,53.04-59.95C306.79-3.73,528.6,71.06,564.53,250.97c36.32,181.85-131.49,331.75-308.75,284.75-113.24-30.03-191.76-139.06-180.79-256.72Z"/>
  <path class="cls-1" d="M307.81,157.23c9.3-.52,18.47,6.11,20.1,15.36l.25,140.75,59.68,51.32c11.63,19.48-10.85,39.44-28.75,25.75-19.13-18.06-43.43-33.75-62.1-51.9-3.56-3.46-6.34-6.39-7.54-11.46-1.43-36.15-.08-72.5.6-108.52.26-13.94-1.74-32.84.05-45.95,1.12-8.21,9.66-14.91,17.72-15.36Z"/>
</svg>