<?xml version="1.0" encoding="UTF-8"?>
<svg id="Layer_1" data-name="Layer 1" xmlns="http://www.w3.org/2000/svg" viewBox="0 0 600 600">
  <defs>
    <style>
      .cls-1 {
        fill: #fff;
      }
    </style>
  </defs>
  <path class="cls-1" d="M467,119c33.02-14.44,67.61-4.56,79.27,31.23,10.86,33.36.09,80.51-22.3,107.24-19.59,23.39-47.52,34.51-78.01,32.99-13.54,46.21-47.8,84.28-93.02,101.15l1,68.96,82.07,10.43v79H164v-79l82.99-11.01.07-68.38c-43.83-16.27-79.12-53.45-92.2-98.47-37.04,3.13-70.22-15.12-88.67-46.83-33.46-57.52-19.26-155.57,66.81-124.31v-20.5c0-22.37,31.56-52.07,54.46-51.54l228.79.3c21.43,1.45,50.76,29.9,50.76,51.24v17.5ZM421.65,94.35c-3.51-3.34-9.16-6.14-14.11-6.4h-215.08c-13.74,1.23-22.92,14.16-21.45,27.53l18.3,156.69c21.47,100.94,156.45,124.76,208.49,33.12,14.16-24.93,13.1-41.55,16.32-68.68,5.06-42.64,11.28-85.3,14.79-128.04-1.15-5.2-3.37-10.52-7.27-14.23ZM451,252c41.74,1.75,64.42-42.38,60.99-79.48-3.25-35.15-32.24-19.78-50.49-6.53l-10.49,86.01ZM149,255l-10.53-85.98c-18.2-13.35-47.21-28.62-50.46,6.49-3.42,36.96,19.2,81.46,60.99,79.49ZM315,400c-9.64,1.46-20.38,1.73-30,0v58h30v-58ZM202,512h196l-.05-6.95-66.46-9.04c-21.68.98-44.5-1.33-66.04-.06-20.44,1.21-42.27,7.03-62.81,9l-.64,7.05Z"/>
</svg>