<?xml version="1.0" encoding="UTF-8"?>
<svg id="Layer_1" data-name="Layer 1" xmlns="http://www.w3.org/2000/svg" viewBox="0 0 600 600">
  <defs>
    <style>
      .cls-1 {
        fill: #fff;
      }
    </style>
  </defs>
  <path class="cls-1" d="M600,0v600H0V0h600ZM282.53,190.5v-95c6.97-3.44,17.55-.02,25.47.49,46.59,3.02,94.17,2.77,140.77,1.02,18.33-.69,36.64-.9,54.78-3.78l2.41,2.48.24,169.83c-3.31,50.15-46.1,95.38-96.4,99.44-7.94.64-15.97-.85-23.83,1.13-19.69,4.95-17.36,33.16,1.97,35.8,15.29,2.09,39.5-1.81,54.32-6.42,60.14-18.7,97.95-72.67,100.88-134.95,2.58-54.86-1.92-111.84-.18-166.92-3.26-25.68-20.09-37.91-45.34-36.67-14.56.72-29.99,3.34-44.84,4.08-55.51,2.77-106.9-1.07-161.78-4.03-22.5-1.21-38.99,9.4-44.31,31.6l-.05,101.82c3.85,14.25,23.28,18.23,32.33,6.51.49-.63,3.47-6.07,3.55-6.45ZM327.7,171.75c-.8-.78-1-2.95-2.21-4.27-15.24-16.73-45.51,4.98-25.5,28.53,16.81,19.79,59.22,18.46,72.22-4.68,9.61-17.11-4.02-36.23-22.49-28.52-5.53,2.31-8.39,9.22-10.99,9.99-2.19.65-9.42.55-11.03-1.04ZM434.56,171.7c-2.29-1.85-3.67-5.88-7.57-7.9-18.65-9.66-35.15,12.47-21.66,30.7,15.65,21.16,55.52,20.24,71.4-.47,14.54-18.96-3.51-40.8-22.2-30.24-3.56,2.01-7.23,8.49-8.96,9.02-2.4.74-9.02.5-11.01-1.11ZM418.99,271.33c.64.4,1.16,2.06,2.53,2.93,22.82,14.45,40.94-12.71,23.27-29.28-16.14-15.14-51.98-16.25-72.61-12.68-8.4,1.45-16.86,4.44-24.19,8.69-16.14-24.78-38.98-16.51-62.97-15-52.46,3.31-108.23,3.22-160.71,0-18.72-1.15-33.64-7.65-50.74,4.2-9.64,6.68-15.28,16.58-16.64,28.33,8.72,97.33-32.74,224.45,65.96,286.9,93.2,58.97,221.81,2.45,230.57-109.87l-.04-156.54c8.87,1.03,11.99-6.39,19.43-9.04,10.1-3.6,37.13-4.35,46.14,1.37Z"/>
  <path d="M418.99,271.33c-9.01-5.71-36.05-4.96-46.14-1.37-7.44,2.65-10.56,10.07-19.43,9.04l.04,156.54c-8.77,112.33-137.37,168.85-230.57,109.87-98.7-62.45-57.23-189.57-65.96-286.9,1.37-11.75,7-21.65,16.64-28.33,17.11-11.85,32.02-5.34,50.74-4.2,52.48,3.22,108.25,3.31,160.71,0,23.99-1.51,46.83-9.78,62.97,15,7.33-4.25,15.78-7.24,24.19-8.69,20.63-3.57,56.47-2.46,72.61,12.68,17.67,16.57-.45,43.73-23.27,29.28-1.37-.87-1.89-2.52-2.53-2.93ZM93.84,261.5v175c0,39.43,41.07,80.37,77.11,90.76,73.29,21.15,142.76-26.09,146.57-102.72,2.6-52.24-2.08-106.62,0-159.09l-1.19-5.32-56.22,3.9c-48.32.35-96.57,1.5-144.79-2.05-6.48-.48-13.31-2.35-19.82-1.83l-1.65,1.34Z"/>
  <path d="M282.53,190.5c-.08.38-3.06,5.82-3.55,6.45-9.05,11.72-28.48,7.74-32.33-6.51l.05-101.82c5.31-22.2,21.81-32.81,44.31-31.6,54.88,2.96,106.27,6.81,161.78,4.03,14.85-.74,30.29-3.37,44.84-4.08,25.25-1.24,42.07,10.99,45.34,36.67-1.75,55.08,2.76,112.06.18,166.92-2.93,62.28-40.75,116.25-100.88,134.95-14.82,4.61-39.03,8.5-54.32,6.42-19.33-2.64-21.66-30.85-1.97-35.8,7.86-1.98,15.89-.49,23.83-1.13,50.3-4.06,93.09-49.29,96.4-99.44l-.24-169.83-2.41-2.48c-18.14,2.88-36.45,3.09-54.78,3.78-46.59,1.75-94.17,2-140.77-1.02-7.92-.51-18.49-3.93-25.47-.49v95Z"/>
  <path d="M327.7,171.75c1.61,1.59,8.84,1.69,11.03,1.04,2.6-.77,5.46-7.68,10.99-9.99,18.47-7.71,32.09,11.41,22.49,28.52-13,23.14-55.41,24.47-72.22,4.68-20.01-23.55,10.26-45.26,25.5-28.53,1.21,1.33,1.42,3.49,2.21,4.27Z"/>
  <path d="M434.56,171.7c1.99,1.61,8.61,1.84,11.01,1.11,1.73-.53,5.4-7.01,8.96-9.02,18.69-10.57,36.74,11.28,22.2,30.24-15.89,20.71-55.75,21.63-71.4.47-13.49-18.23,3.01-40.35,21.66-30.7,3.9,2.02,5.28,6.05,7.57,7.9Z"/>
  <path class="cls-1" d="M93.84,261.5l1.65-1.34c6.51-.52,13.34,1.35,19.82,1.83,48.22,3.55,96.47,2.4,144.79,2.05l56.22-3.9,1.19,5.32c-2.08,52.47,2.6,106.85,0,159.09-3.81,76.63-73.27,123.86-146.57,102.72-36.04-10.4-77.11-51.33-77.11-90.76v-175ZM144.55,350.29c-16.14,1.73-39.33,16.41-33.78,35.26,3.54,12.04,18.63,16.83,28.49,9.44,6.36-4.76,3.75-9.64,15.04-8.04,4.51.64,4.82,4.83,8.5,7.48,15.42,11.1,34.3-4.08,28.1-22.16s-29.76-23.76-46.34-21.98ZM244.39,350.29c-16.8,1.81-38.49,15.27-34.29,34.76,2.63,12.21,18.56,16.86,28.46,10.39,6.86-4.48,3.54-10.04,15.59-8.51,3.78.48,5.29,5.46,9.08,7.9,16.64,10.68,34.99-6.61,26-25.05-7.69-15.77-28.65-21.24-44.84-19.5ZM160.51,430.23c-18.28,2-20.62,23.25-7.29,34.79,21.03,18.22,77.95,17.31,99.37-.51,18.28-15.2,5.39-40.53-16.54-33.57-4.19,1.33-4.99,3.94-8.09,5.9-9.66,6.09-40.42,6.37-50.18.59-2.59-1.54-3.6-4.05-7.37-5.62-3.25-1.36-6.4-1.95-9.9-1.57Z"/>
  <path d="M160.51,430.23c3.49-.38,6.65.21,9.9,1.57,3.77,1.58,4.77,4.09,7.37,5.62,9.76,5.79,40.53,5.5,50.18-.59,3.1-1.95,3.9-4.57,8.09-5.9,21.94-6.96,34.82,18.37,16.54,33.57-21.42,17.82-78.34,18.73-99.37.51-13.33-11.54-10.99-32.79,7.29-34.79Z"/>
  <path d="M244.39,350.29c16.19-1.74,37.15,3.73,44.84,19.5,8.99,18.43-9.36,35.73-26,25.05-3.79-2.43-5.3-7.41-9.08-7.9-12.05-1.53-8.73,4.03-15.59,8.51-9.9,6.46-25.83,1.82-28.46-10.39-4.19-19.5,17.49-32.96,34.29-34.76Z"/>
  <path d="M144.55,350.29c16.58-1.78,40.33,4.41,46.34,21.98s-12.68,33.25-28.1,22.16c-3.68-2.65-3.99-6.84-8.5-7.48-11.29-1.61-8.68,3.27-15.04,8.04-9.86,7.39-24.95,2.6-28.49-9.44-5.54-18.85,17.64-33.52,33.78-35.26Z"/>
</svg>