<?xml version="1.0" encoding="UTF-8"?>
<svg id="Layer_1" data-name="Layer 1" xmlns="http://www.w3.org/2000/svg" viewBox="0 0 600.39 600">
  <defs>
    <style>
      .cls-1 {
        fill: #fff;
      }
    </style>
  </defs>
  <path class="cls-1" d="M600,0v600H0V0h600ZM74.99,279c-10.97,117.66,67.55,226.69,180.79,256.72,177.26,47,345.07-102.9,308.75-284.75C528.6,71.06,306.79-3.73,164.1,108.6c-11.86,9.34-50.87,46.34-53.04,59.95-3.13,19.61,19.04,31.49,32.98,17.98,10.51-10.18,19.08-24.95,30.94-36.06,108.64-101.71,293.86-59.46,343.76,81.27,52.18,147.16-72.88,292.19-225.1,272.1-108.51-14.32-191.22-112.65-179.63-222.86,12.52,9.12,23.22,24.24,34.98,33.51,18.85,14.86,41.7-6.83,28.43-26.43l-71.39-70.61c-7.56-5.8-17.52-6.16-25.04,0-20.79,23.65-50.38,44.84-70,69-16.14,19.88,7.68,43.31,27.03,28.03,12.63-9.97,23.34-26.03,36.98-35.51ZM307.81,157.23c-8.06.45-16.6,7.15-17.72,15.36-1.78,13.11.22,32.01-.05,45.95-.68,36.02-2.03,72.36-.6,108.52,1.2,5.06,3.99,8,7.54,11.46,18.67,18.15,42.97,33.84,62.1,51.9,17.9,13.69,40.38-6.27,28.75-25.75l-59.68-51.32-.25-140.75c-1.63-9.25-10.8-15.88-20.1-15.36Z"/>
  <path d="M74.99,279c-13.64,9.48-24.35,25.54-36.98,35.51-19.35,15.28-43.18-8.15-27.03-28.03,19.62-24.16,49.21-45.35,70-69,7.53-6.16,17.48-5.8,25.04,0l71.39,70.61c13.27,19.59-9.58,41.29-28.43,26.43-11.76-9.27-22.46-24.39-34.98-33.51-11.58,110.21,71.12,208.53,179.63,222.86,152.22,20.09,277.29-124.95,225.1-272.1-49.9-140.72-235.12-182.98-343.76-81.27-11.86,11.11-20.43,25.87-30.94,36.06-13.94,13.51-36.11,1.62-32.98-17.98,2.17-13.61,41.18-50.61,53.04-59.95C306.79-3.73,528.6,71.06,564.53,250.97c36.32,181.85-131.49,331.75-308.75,284.75-113.24-30.03-191.76-139.06-180.79-256.72Z"/>
  <path d="M307.81,157.23c9.3-.52,18.47,6.11,20.1,15.36l.25,140.75,59.68,51.32c11.63,19.48-10.85,39.44-28.75,25.75-19.13-18.06-43.43-33.75-62.1-51.9-3.56-3.46-6.34-6.39-7.54-11.46-1.43-36.15-.08-72.5.6-108.52.26-13.94-1.74-32.84.05-45.95,1.12-8.21,9.66-14.91,17.72-15.36Z"/>
</svg>