<?xml version="1.0" encoding="UTF-8"?>
<svg id="Layer_1" data-name="Layer 1" xmlns="http://www.w3.org/2000/svg" viewBox="0 0 600.39 600">
  <defs>
    <style>
      .cls-1 {
        fill: #fff;
      }
    </style>
  </defs>
  <path class="cls-1" d="M600,0v600H0V0h600ZM438,453c15.07-.4,30.37-1.34,45.38-3.12,29.16-3.47,52.02-11.38,58.52-43.48V132.61c-8.45-44.59-57.2-43.95-93.41-46.6-90.59-6.63-192.29-4.92-283-.02-38.72,2.09-98.82-2.33-107.48,47.52l-.06,270.04c1.41,22.44,20.34,40.17,41.8,44.2,25.76,4.83,56.41,5.02,82.73,6.27,1.99.09,3.92,1.12,5.97,1.03l119.58,2.42c9.13,6,17.66,12.97,25.97,20.03,23.16,19.68,41.71,50.02,76.97,37,11.89-4.39,27.01-19.65,27.01-32.99v-28.5Z"/>
  <path d="M438,453v28.5c0,13.34-15.12,28.6-27.01,32.99-35.26,13.02-53.81-17.32-76.97-37-8.31-7.06-16.84-14.03-25.97-20.03l-119.58-2.42c-2.05.09-3.98-.94-5.97-1.03-26.32-1.25-56.98-1.44-82.73-6.27-21.46-4.02-40.39-21.75-41.8-44.2l.06-270.04c8.66-49.85,68.76-45.43,107.48-47.52,90.71-4.9,192.41-6.61,283,.02,36.2,2.65,84.96,2.01,93.4,46.6v273.79c-6.49,32.1-29.36,40.01-58.52,43.48-15.01,1.79-30.3,2.72-45.38,3.12ZM286.79,117.29c-49.64,1.86-99.77.11-149.29,4.71-8.44.78-31.04,2.84-37.44,6.56-3.64,2.11-5.67,4.96-7.13,8.87-1.49,88.07-1.71,176.93.11,265.01,1.93,5.84,8.06,9.94,13.9,11.1,8.9,1.77,22.18,2.62,31.55,3.45,58.31,5.12,117.17,4.34,175.75,5.25,12.7,1.98,34.68,21.5,44.75,30.25,8.9,7.73,21.09,22.05,30.03,27.97,5.65,3.74,10.19,2.46,13.75-3.16.53-11.38-.15-23.36,1.33-34.67,1.81-13.77,3.85-22.23,19.39-23.61,22.2-1.97,46.81-1.14,68.75-5.25,9.25-1.73,16.06-8.41,15.78-18.22l-.49-256.6c-2.72-10.05-9.97-12.2-19.18-13.82-29.09-5.12-62.27-5.13-91.87-6.13l-59.96-2.04-49.75.34Z"/>
  <path class="cls-1" d="M286.79,117.29l49.75-.34,59.96,2.04c29.6,1.01,62.78,1.02,91.87,6.13,9.21,1.62,16.46,3.77,19.18,13.82l.49,256.6c.28,9.81-6.53,16.49-15.78,18.22-21.93,4.11-46.55,3.28-68.75,5.25-15.54,1.38-17.58,9.84-19.39,23.61-1.48,11.3-.81,23.28-1.33,34.67-3.56,5.62-8.1,6.9-13.75,3.16-8.94-5.91-21.13-20.24-30.03-27.97-10.08-8.75-32.05-28.27-44.75-30.25-58.58-.9-117.45-.12-175.75-5.25-9.37-.82-22.65-1.68-31.55-3.45-5.84-1.16-11.97-5.26-13.9-11.1-1.83-88.08-1.6-176.94-.11-265.01,1.46-3.91,3.49-6.76,7.13-8.87,6.4-3.72,29-5.78,37.44-6.56,49.52-4.6,99.65-2.85,149.29-4.71ZM295.73,156.24c-4.61.85-11.06,6.15-12.26,10.73-.94,3.6-.99,16.61-.24,20.3,3.11,15.29,29.33,15.97,33.3.76.94-3.6.99-16.61.24-20.3-1.81-8.87-12.91-13-21.04-11.49ZM312.65,225.35c-8.85-9.33-27.02-4.9-29.58,8.22l-.09,119.96c3.86,18.03,29.02,18.44,33.96.91l-.7-123.17c-1.19-1.8-2.15-4.4-3.59-5.92Z"/>
  <path d="M312.65,225.35c1.44,1.52,2.39,4.12,3.59,5.92l.7,123.17c-4.94,17.53-30.1,17.12-33.96-.91l.09-119.96c2.56-13.11,20.73-17.55,29.58-8.22Z"/>
  <path d="M295.73,156.24c8.14-1.51,19.23,2.62,21.04,11.49.75,3.69.7,16.7-.24,20.3-3.97,15.21-30.19,14.54-33.3-.76-.75-3.69-.7-16.7.24-20.3,1.2-4.59,7.65-9.88,12.26-10.73Z"/>
</svg>