<?xml version="1.0" encoding="UTF-8"?>
<svg id="Layer_1" data-name="Layer 1" xmlns="http://www.w3.org/2000/svg" viewBox="0 0 600.39 600">
  <defs>
    <style>
      .cls-1 {
        fill: #fff;
      }
    </style>
  </defs>
  <path class="cls-1" d="M600,0v600H0V0h600ZM460,254h49.5c15.76,0,32.63-19.55,34.39-34.61,1.44-12.29,1.49-45.5-.15-57.63-1.91-14.06-15.06-27.79-28.52-31.48-65.78-12.99-132.56-35.91-198.21-47.79-6.84-1.24-13.19-2.27-20.26-1.24-65.33,19.03-137.1,28.44-201.77,48.23-12.05,3.69-22.5,10.32-27.86,22.14-5.93,13.09-6.01,62.52-1.31,76.06,3.76,10.84,19.8,26.31,31.69,26.31h24.5v151h-34.5c-10.12,0-24.93,15.21-28.68,24.32-4.15,10.09-3.87,42.4-2.86,54.21,1.57,18.18,18.22,34.51,36.49,35.51h409.09c20.14-1.27,35.92-17.53,37.49-37.51,1.02-12.98,1.38-42.18-3.55-53.52-3.56-8.19-18.94-23.01-27.99-23.01h-47.5v-151Z"/>
  <path d="M460,254v151h47.5c9.05,0,24.42,14.83,27.99,23.01,4.93,11.34,4.57,40.54,3.55,53.52-1.57,19.98-17.35,36.24-37.49,37.51H92.46c-18.27-.99-34.93-17.32-36.49-35.51-1.02-11.81-1.29-44.13,2.86-54.21,3.75-9.11,18.56-24.32,28.68-24.32h34.5v-151h-24.5c-11.89,0-27.93-15.48-31.69-26.31-4.7-13.55-4.62-62.98,1.31-76.06,5.36-11.82,15.81-18.45,27.86-22.14,64.67-19.8,136.43-29.21,201.77-48.23,7.06-1.04,13.41,0,20.26,1.24,65.65,11.89,132.43,34.8,198.21,47.79,13.46,3.68,26.62,17.41,28.52,31.48,1.64,12.14,1.59,45.34.15,57.63-1.76,15.06-18.64,34.61-34.39,34.61h-49.5ZM102.14,168.14l-.14,44.36c.24,2.33,2.54,3.1,4.57,3.43l392.98.11c2.55-.02,5.96-.52,6.45-3.55-1.29-12.74,1.72-28.74.05-41.05-.33-2.4-.5-3.09-2.76-4.24l-198.94-47.88-202.2,48.81ZM200,254h-40v150h40v-150ZM271,254h-33v150h33v-150ZM343,254h-33v150h33v-150ZM421,254h-39v150h39v-150ZM96.7,443.2c-1.64.55-2.37,1.69-2.67,3.33-.82,4.4-.7,25.24-.07,30.02.18,1.4.23,2.59,1.45,3.55l401.15.96c3.43.15,4.14-2.71,4.46-5.54.65-5.67.76-22.5-.09-27.95-.32-2.06-1.11-4.32-3.43-4.57l-400.8.2Z"/>
  <path class="cls-1" d="M102.14,168.14l202.2-48.81,198.94,47.88c2.26,1.15,2.44,1.83,2.76,4.24,1.67,12.31-1.33,28.31-.05,41.05-.5,3.03-3.91,3.52-6.45,3.55l-392.98-.11c-2.03-.33-4.33-1.1-4.57-3.43l.14-44.36Z"/>
  <path class="cls-1" d="M96.7,443.2l400.8-.2c2.32.25,3.11,2.51,3.43,4.57.84,5.45.73,22.28.09,27.95-.32,2.83-1.03,5.69-4.46,5.54l-401.15-.96c-1.22-.96-1.27-2.15-1.45-3.55-.63-4.78-.75-25.62.07-30.02.31-1.64,1.04-2.78,2.67-3.33Z"/>
  <rect class="cls-1" x="160" y="254" width="40" height="150"/>
  <rect class="cls-1" x="382" y="254" width="39" height="150"/>
  <rect class="cls-1" x="238" y="254" width="33" height="150"/>
  <rect class="cls-1" x="310" y="254" width="33" height="150"/>
</svg>