<?xml version="1.0" encoding="UTF-8"?>
<svg id="Layer_1" data-name="Layer 1" xmlns="http://www.w3.org/2000/svg" viewBox="0 0 600.39 600">
  <defs>
    <style>
      .cls-1 {
        fill: #fff;
      }
    </style>
  </defs>
  <path class="cls-1" d="M600,0v600H0V0h600ZM256,123v-53.5c0-.71-2.29-5.04-2.99-6.01-6.45-8.89-20.89-10.46-29.06-3.04-1.5,1.36-5.95,8.44-5.95,10.05v52.5h-35.5c-5.8,0-19.07,4.71-24.52,7.48-27.51,13.97-37.9,43.83-35.11,73.39l-56.88,17.62c-19.48,11.17-9.11,40.47,13.27,36.27l43.74-13.76v35.5l-2.43,1.57c-15.98,6.88-39.16,9.26-54.25,16.75-10.51,5.22-14.02,19.77-6.85,29.2,5.85,7.7,13.73,8.42,22.56,6.5,13.3-2.88,27.39-9.77,40.96-12.53v36l-58.35,18.15c-14.79,9.71-10.36,34.13,7.85,35.86,13.92,1.32,35.88-11.96,50.5-13v32.5c0,26.02,33.62,57.5,59.5,57.5h35.5v41.5c0,1.61,4.46,8.69,5.95,10.05,8.17,7.42,22.6,5.85,29.06-3.04.71-.97,2.99-5.29,2.99-6.01v-42.5h25v42.5c0,.37,3.01,5.7,3.56,6.44,7.37,9.73,23.51,9.72,30.87,0,.55-.73,3.56-6.07,3.56-6.44v-42.5h25v42.5c0,.71,2.29,5.04,2.99,6.01,6.45,8.89,20.89,10.46,29.06,3.04,1.5-1.36,5.95-8.44,5.95-10.05v-41.5h35.5c25.88,0,59.5-31.48,59.5-57.5v-32.5c17.17,1.02,48.48,22.53,62.55,7.05,7.85-8.64,5.61-23.6-4.19-29.9l-58.35-18.15v-36c13.58,2.76,27.67,9.65,40.96,12.53,27.63,5.98,34.86-26.2,15.71-35.71-15.07-7.48-38.27-9.96-54.25-16.75l-2.43-1.57v-35.5l43.74,13.76c24.52,3.93,32.19-28.06,11.96-36.96l-55.57-16.93c2.79-29.2-7.44-58.92-34.46-73.04-5.64-2.95-19.1-7.83-25.17-7.83h-35.5v-52.5c0-1.61-4.46-8.69-5.95-10.05-8.17-7.42-22.6-5.85-29.06,3.04-.71.97-2.99,5.29-2.99,6.01v53.5h-25v-53.5c0-.37-3.01-5.7-3.56-6.44-7.37-9.73-23.51-9.72-30.87,0-.55.73-3.56,6.07-3.56,6.44v53.5h-25Z"/>
  <path d="M256,123h25v-53.5c0-.37,3.01-5.7,3.56-6.44,7.36-9.72,23.5-9.73,30.87,0,.55.73,3.56,6.07,3.56,6.44v53.5h25v-53.5c0-.71,2.29-5.04,2.99-6.01,6.45-8.89,20.89-10.46,29.06-3.04,1.5,1.36,5.95,8.44,5.95,10.05v52.5h35.5c6.06,0,19.53,4.88,25.17,7.83,27.02,14.11,37.25,43.84,34.46,73.04l55.57,16.93c20.22,8.9,12.56,40.89-11.96,36.96l-43.74-13.76v35.5l2.43,1.57c15.97,6.79,39.18,9.27,54.25,16.75,19.15,9.51,11.92,41.69-15.71,35.71-13.3-2.88-27.39-9.77-40.96-12.53v36l58.35,18.15c9.8,6.3,12.04,21.26,4.19,29.9-14.06,15.48-45.38-6.03-62.55-7.05v32.5c0,26.02-33.62,57.5-59.5,57.5h-35.5v41.5c0,1.61-4.46,8.69-5.95,10.05-8.17,7.42-22.6,5.85-29.06-3.04-.71-.97-2.99-5.29-2.99-6.01v-42.5h-25v42.5c0,.37-3.01,5.7-3.56,6.44-7.36,9.72-23.5,9.73-30.87,0-.55-.73-3.56-6.07-3.56-6.44v-42.5h-25v42.5c0,.71-2.29,5.04-2.99,6.01-6.45,8.89-20.89,10.46-29.06,3.04-1.5-1.36-5.95-8.44-5.95-10.05v-41.5h-35.5c-25.88,0-59.5-31.48-59.5-57.5v-32.5c-14.62,1.04-36.58,14.32-50.5,13-18.21-1.73-22.64-26.14-7.85-35.86l58.35-18.15v-36c-13.58,2.76-27.67,9.65-40.96,12.53-8.84,1.91-16.71,1.19-22.56-6.5-7.17-9.43-3.66-23.98,6.85-29.2,15.09-7.49,38.27-9.87,54.25-16.75l2.43-1.57v-35.5l-43.74,13.76c-22.39,4.2-32.75-25.09-13.27-36.27l56.88-17.62c-2.79-29.56,7.6-59.42,35.11-73.39,5.45-2.77,18.73-7.48,24.52-7.48h35.5v-52.5c0-1.61,4.46-8.69,5.95-10.05,8.17-7.42,22.6-5.85,29.06,3.04.71.97,2.99,5.29,2.99,6.01v53.5ZM182.74,162.24c-13.45,3.74-20.71,14.67-21.77,28.23v230.07c.93,14.65,10.24,27.19,25.5,28.5h227.07c15.58-1.34,25.03-14.43,25.51-29.49v-229.08c-.73-13.99-10.03-26.81-24.5-28.5l-231.8.28Z"/>
  <path class="cls-1" d="M182.74,162.24l231.8-.28c14.47,1.69,23.77,14.51,24.5,28.5v229.08c-.47,15.06-9.92,28.15-25.5,29.49h-227.07c-15.26-1.31-24.57-13.85-25.5-28.5v-230.07c1.07-13.56,8.33-24.49,21.77-28.23ZM257.74,222.24c-20.91,3.26-32.53,23.75-33.78,43.22-1.16,17.92-2.11,66.8,2.76,82.32,4.58,14.6,18.7,26.11,33.79,28.21,41.34-4.68,110.83,19.33,115.48-42.5,1.44-19.11,1.4-49.84,0-68.98-1.57-21.55-13.16-37.32-34.57-42.43-25.65,2.47-58.92-3.7-83.67.16Z"/>
  <path d="M257.74,222.24c24.75-3.85,58.02,2.31,83.67-.16,21.42,5.11,33.01,20.88,34.57,42.43,1.39,19.13,1.43,49.87,0,68.98-4.65,61.84-74.13,37.82-115.48,42.5-15.09-2.1-29.21-13.61-33.79-28.21-4.87-15.52-3.92-64.4-2.76-82.32,1.26-19.47,12.87-39.96,33.78-43.22ZM335.76,261.24h-71.53v75.53h71.53v-75.53Z"/>
  <rect class="cls-1" x="264.24" y="261.24" width="71.53" height="75.53"/>
</svg>